<svg xmlns="http://www.w3.org/2000/svg" xml:space="preserve" width="501.22" height="512"><path d="M501.22 41.43v214.58l-250.61.01V0h209.18c5.09 0 10.01.89 14.53 2.67a41.25 41.25 0 0 1 24.23 24.22 41.44 41.44 0 0 1 2.67 14.54z" style="fill:#585b70;fill-opacity:1"/><path d="M250.61 0v256.02H0V41.43A41.47 41.47 0 0 1 41.43 0Z" style="fill:#45475a;fill-opacity:1"/><path d="M501.22 256.01v214.57A41.4 41.4 0 0 1 459.8 512H250.61l-.02-255.99z" style="fill:#fab387;fill-opacity:1;stroke:none;stroke-opacity:1"/><path d="M250.61 256.02V512l-209.18-.04a40.85 40.85 0 0 1-16.07-3.23 41.8 41.8 0 0 1-22.21-22.2A41.73 41.73 0 0 1 0 470.6V256.02Z" style="fill:#45475a;fill-opacity:1"/><path d="M247.38 0h6.46v512h-6.46z" style="fill:#4d4c4c;stroke-width:1.00004"/><path d="M0 252.79h501.22v6.46H0z" style="fill:#4d4c4c;stroke-width:1"/><path d="M336.7 393.08v13.97h74.63v-13.97zm0-34.57v14.05h74.63v-14.05z" style="fill:#313244;fill-opacity:1"/><path d="M134.26 116.64V84.8h-21.69v31.84H79.99v20.08h32.58v32.11h21.69v-32.11h32.57v-20.08zM341.13 115.95h65.76v21.72h-65.76zM162.17 358.31l-13.38-12.9-25.38 24.49-25.38-24.49-13.37 12.9 25.37 24.49-25.37 24.49 13.37 12.91 25.38-24.49 25.38 24.49 13.38-12.91-25.38-24.49z" style="fill:#cdd6f4;fill-opacity:1"/></svg>